<?xml version="1.0" encoding="utf-8"?>
<!-- Svg Vector Icons : http://www.onlinewebfonts.com/icon -->
<!DOCTYPE svg PUBLIC "-//W3C//DTD SVG 1.1//EN" "http://www.w3.org/Graphics/SVG/1.1/DTD/svg11.dtd">
<svg version="1.1" xmlns="http://www.w3.org/2000/svg" xmlns:xlink="http://www.w3.org/1999/xlink" x="0px" y="0px" viewBox="0 0 1000 1000" enable-background="new 0 0 1000 1000" xml:space="preserve">
<metadata> Svg Vector Icons : http://www.onlinewebfonts.com/icon </metadata>
<g><g><path d="M99.5,301.7c95.1-81.7,170.2-146.2,374.1-31c97.9,55.3,176.9,76.2,242.7,76.1c115.1,0,189.8-64,254.3-119.4c23-19.8,26-54.9,6.6-78.3c-19.4-23.5-53.7-26.6-76.8-6.8c-95.1,81.8-170.2,146.3-374.1,31C257,21.2,130.8,129.5,29.4,216.6c-23,19.8-25.9,54.8-6.6,78.3C42.2,318.4,76.5,321.5,99.5,301.7L99.5,301.7z M900.5,420.2c-95.1,81.7-170.2,146.3-374.1,31c-269.4-152.2-395.6-43.8-497,43.3c-23,19.8-26,54.9-6.6,78.3c19.3,23.5,53.7,26.6,76.7,6.8c95.1-81.7,170.2-146.3,374.1-31.1c97.9,55.4,176.9,76.2,242.7,76.2c115.1,0,189.8-64,254.3-119.5c23-19.8,26-54.9,6.6-78.3C957.9,403.4,923.5,400.5,900.5,420.2L900.5,420.2z M900.5,698.2c-95.1,81.8-170.2,146.3-374.1,31.1c-269.4-152.2-395.6-43.8-497,43.3c-23,19.8-26,54.9-6.6,78.3c19.3,23.5,53.7,26.5,76.7,6.7c95.1-81.7,170.2-146.2,374.1-31c97.9,55.3,176.9,76.2,242.7,76.2c115.1,0,189.8-64.1,254.3-119.5c23-19.8,26-54.9,6.6-78.3C957.9,681.5,923.5,678.5,900.5,698.2L900.5,698.2z"/></g></g>
</svg>