<?xml version="1.0" encoding="utf-8"?>
<!-- Svg Vector Icons : http://www.onlinewebfonts.com/icon -->
<!DOCTYPE svg PUBLIC "-//W3C//DTD SVG 1.1//EN" "http://www.w3.org/Graphics/SVG/1.1/DTD/svg11.dtd">
<svg version="1.1" xmlns="http://www.w3.org/2000/svg" xmlns:xlink="http://www.w3.org/1999/xlink" x="0px" y="0px" viewBox="0 0 1000 1000" enable-background="new 0 0 1000 1000" xml:space="preserve">
<metadata> Svg Vector Icons : http://www.onlinewebfonts.com/icon </metadata>
<g><path d="M517.5,548.2c-2.9,0-5.8,0.2-8.7,0.4v-0.4H325c-14.5,0-26.2,11.7-26.2,26.2c0,14.5,11.7,26.2,26.2,26.2h96.8c0,0-0.1,0.1-0.1,0.2h92.9c1,0,2-0.2,3-0.2s2,0.1,3,0.2h5.7v0.5c29.7,4.2,52.6,29.7,52.6,60.6c0,33.9-27.4,61.3-61.2,61.3c-15,0-28.7-5.5-39.4-14.5c-4.7-7.1-12.7-11.8-21.9-11.8c-14.5,0-26.2,11.7-26.2,26.2c0,9,4.5,16.8,11.4,21.6l-0.9,0.9c20.2,18.7,47.2,30.1,76.9,30.1c62.8,0,113.8-51,113.8-113.9C631.2,599.2,580.3,548.2,517.5,548.2L517.5,548.2z M876.2,311.6c-30,0-57.3,11.7-77.6,30.8l0.7,0.7c-6.4,4.8-10.7,12.4-10.7,21.1c0,14.5,11.8,26.3,26.3,26.3c9.2,0,17.3-4.7,22-11.9c10.6-8.9,24.3-14.4,39.3-14.4c33.9,0,61.3,27.5,61.3,61.3s-27.5,61.3-61.3,61.3h-95.7H745c-14.5,0-26.2,11.7-26.2,26.2c0,14.5,11.7,26.2,26.2,26.2h131.2c62.8,0,113.8-51,113.8-113.9C990,362.6,939,311.6,876.2,311.6L876.2,311.6z M613.7,224c-30,0-57.3,11.7-77.6,30.7l0.8,0.8c-6.4,4.8-10.6,12.4-10.6,21c0,14.5,11.7,26.3,26.2,26.3c9.2,0,17.2-4.8,21.9-11.9c10.6-9,24.3-14.5,39.3-14.5c33.8,0,61.2,27.5,61.2,61.3c0,30.9-22.8,56.4-52.5,60.6v0.7H517.9H228.7H36.2c-14.5,0-26.2,11.8-26.2,26.3s11.7,26.3,26.2,26.3H605v-0.4c2.9,0.2,5.7,0.4,8.7,0.4c62.8,0,113.8-51,113.8-113.9C727.5,275,676.5,224,613.7,224L613.7,224z M106.8,302.9H412c10,0,18.1-8.1,18.1-18.1v-16.4c0-10-8.1-18.1-18.1-18.1H106.8c-10,0-18.1,8.1-18.1,18.1v16.4C88.7,294.8,96.8,302.9,106.8,302.9L106.8,302.9z"/></g>
</svg>